<svg width="28" height="76" viewBox="0 0 28 76" fill="none" xmlns="http://www.w3.org/2000/svg">
<g opacity="0.9">
<mask id="path-1-inside-1_2_2833" fill="white">
<path d="M0 0H28V76H0V0Z"/>
</mask>
<path d="M0 0H28V76H0V0Z" fill="white" fill-opacity="0.9"/>
<g clip-path="url(#clip0_2_2833)">
<path d="M10.793 40.4951L18.793 32.4951C18.8859 32.4023 18.9962 32.3286 19.1176 32.2784C19.2389 32.2282 19.369 32.2023 19.5004 32.2024C19.6317 32.2024 19.7618 32.2284 19.8831 32.2787C20.0044 32.329 20.1147 32.4027 20.2075 32.4956C20.3004 32.5885 20.374 32.6988 20.4242 32.8202C20.4744 32.9415 20.5003 33.0716 20.5002 33.2029C20.5002 33.3343 20.4742 33.4644 20.4239 33.5857C20.3736 33.707 20.2999 33.8173 20.207 33.9101L12.914 41.2031L20.207 48.4961C20.3025 48.5883 20.3787 48.6987 20.4311 48.8207C20.4835 48.9427 20.5111 49.0739 20.5123 49.2067C20.5134 49.3395 20.4881 49.4712 20.4378 49.594C20.3875 49.7169 20.3133 49.8286 20.2194 49.9225C20.1255 50.0164 20.0139 50.0906 19.891 50.1409C19.7681 50.1912 19.6364 50.2165 19.5036 50.2153C19.3708 50.2142 19.2396 50.1866 19.1176 50.1342C18.9956 50.0818 18.8853 50.0056 18.793 49.9101L10.793 41.9101C10.6995 41.8175 10.6254 41.7073 10.5747 41.5859C10.5241 41.4644 10.498 41.3342 10.498 41.2026C10.498 41.071 10.5241 40.9408 10.5747 40.8193C10.6254 40.6979 10.6995 40.5877 10.793 40.4951Z" fill="#94979B"/>
</g>
<path d="M28 0H29V-1H28V0ZM28 76V77H29V76H28ZM0 1H28V-1H0V1ZM27 0V76H29V0H27ZM28 75H0V77H28V75Z" fill="#767676" mask="url(#path-1-inside-1_2_2833)"/>
</g>
<defs>
<clipPath id="clip0_2_2833">
<rect width="18" height="18" fill="white" transform="translate(4.5 29.2031)"/>
</clipPath>
</defs>
</svg>
