<svg width="28" height="76" viewBox="0 0 28 76" fill="none" xmlns="http://www.w3.org/2000/svg">
<g opacity="0.9">
<mask id="path-1-inside-1_2_2839" fill="white">
<path d="M0 0H28V76H0V0Z"/>
</mask>
<path d="M0 0H28V76H0V0Z" fill="white" fill-opacity="0.9"/>
<g clip-path="url(#clip0_2_2839)">
<path d="M23.2071 40.4961C23.3017 40.5903 23.3765 40.7025 23.4271 40.8261L23.2071 40.4961ZM23.2061 40.4951L15.2071 32.4951C15.0194 32.3076 14.765 32.2023 14.4997 32.2024C14.2345 32.2025 13.9801 32.308 13.7926 32.4956C13.6051 32.6832 13.4998 32.9377 13.4999 33.2029C13.5 33.4682 13.6054 33.7226 13.7931 33.9101L21.0861 41.2031L13.7931 48.4961C13.6976 48.5883 13.6214 48.6987 13.569 48.8207C13.5166 48.9427 13.489 49.0739 13.4878 49.2067C13.4867 49.3395 13.512 49.4712 13.5623 49.594C13.6125 49.7169 13.6868 49.8286 13.7807 49.9225C13.8746 50.0164 13.9862 50.0906 14.1091 50.1409C14.232 50.1912 14.3637 50.2165 14.4965 50.2153C14.6293 50.2142 14.7605 50.1866 14.8825 50.1342C15.0045 50.0818 15.1148 50.0056 15.2071 49.9101L23.2071 41.9101C23.3462 41.7712 23.4413 41.5944 23.4805 41.4018C23.5196 41.2091 23.501 41.0082 23.4271 40.8261" fill="#94979B"/>
</g>
<path d="M0 0V-1H-1V0H0ZM0 76H-1V77H0V76ZM0 1H28V-1H0V1ZM28 75H0V77H28V75ZM1 76V0H-1V76H1Z" fill="#767676" mask="url(#path-1-inside-1_2_2839)"/>
</g>
<defs>
<clipPath id="clip0_2_2839">
<rect width="18" height="18" fill="white" transform="translate(5.5 29.2031)"/>
</clipPath>
</defs>
</svg>
