<svg width="233" height="26" viewBox="0 0 233 26" fill="none" xmlns="http://www.w3.org/2000/svg">
<g clip-path="url(#clip0_2_1847)">
<path d="M8.59603 12.6622C8.55553 12.5362 8.4761 12.4264 8.36917 12.3484C8.26225 12.2705 8.13335 12.2285 8.00103 12.2285C7.86872 12.2285 7.73982 12.2705 7.63289 12.3484C7.52597 12.4264 7.44653 12.5362 7.40603 12.6622L6.05503 16.8702H1.62003C1.48568 16.87 1.35484 16.9132 1.24693 16.9932C1.13902 17.0733 1.05977 17.1859 1.02094 17.3146C0.982105 17.4432 0.985753 17.5809 1.03134 17.7073C1.07693 17.8337 1.16203 17.942 1.27403 18.0162L4.83403 20.3802L3.46803 24.4152C3.42592 24.5402 3.42441 24.6753 3.46372 24.8011C3.50303 24.927 3.58115 25.0372 3.6869 25.116C3.79265 25.1948 3.92061 25.2381 4.05248 25.2398C4.18434 25.2414 4.31334 25.2013 4.42103 25.1252L8.00003 22.5962L11.578 25.1242C11.6857 25.2003 11.8147 25.2404 11.9466 25.2388C12.0785 25.2371 12.2064 25.1938 12.3122 25.115C12.4179 25.0362 12.496 24.926 12.5353 24.8001C12.5747 24.6743 12.5732 24.5392 12.531 24.4142L11.165 20.3782L14.715 18.0142C14.8266 17.9398 14.9113 17.8315 14.9566 17.7054C15.0018 17.5792 15.0054 17.4418 14.9666 17.3134C14.9278 17.1851 14.8488 17.0726 14.7412 16.9926C14.6336 16.9126 14.5031 16.8694 14.369 16.8692H9.95503L8.59603 12.6622Z" fill="black" stroke="#191919" stroke-width="1.25"/>
<path d="M8.59603 12.6622C8.55553 12.5362 8.4761 12.4264 8.36917 12.3484C8.26225 12.2705 8.13335 12.2285 8.00103 12.2285C7.86872 12.2285 7.73982 12.2705 7.63289 12.3484C7.52597 12.4264 7.44653 12.5362 7.40603 12.6622L6.05503 16.8702H1.62003C1.48568 16.87 1.35484 16.9132 1.24693 16.9932C1.13902 17.0733 1.05977 17.1859 1.02094 17.3146C0.982105 17.4432 0.985753 17.5809 1.03134 17.7073C1.07693 17.8337 1.16203 17.942 1.27403 18.0162L4.83403 20.3802L3.46803 24.4152C3.42592 24.5402 3.42441 24.6753 3.46372 24.8011C3.50303 24.927 3.58115 25.0372 3.6869 25.116C3.79265 25.1948 3.92061 25.2381 4.05248 25.2398C4.18434 25.2414 4.31334 25.2013 4.42103 25.1252L8.00003 22.5962L11.578 25.1242C11.6857 25.2003 11.8147 25.2404 11.9466 25.2388C12.0785 25.2371 12.2064 25.1938 12.3122 25.115C12.4179 25.0362 12.496 24.926 12.5353 24.8001C12.5747 24.6743 12.5732 24.5392 12.531 24.4142L11.165 20.3782L14.715 18.0142C14.8266 17.9398 14.9113 17.8315 14.9566 17.7054C15.0018 17.5792 15.0054 17.4418 14.9666 17.3134C14.9278 17.1851 14.8488 17.0726 14.7412 16.9926C14.6336 16.9126 14.5031 16.8694 14.369 16.8692H9.95503L8.59603 12.6622Z" stroke="#191919" stroke-width="1.25"/>
</g>
<g clip-path="url(#clip1_2_1847)">
<path d="M20.596 12.6622C20.5555 12.5362 20.4761 12.4264 20.3692 12.3484C20.2622 12.2705 20.1333 12.2285 20.001 12.2285C19.8687 12.2285 19.7398 12.2705 19.6329 12.3484C19.526 12.4264 19.4465 12.5362 19.406 12.6622L18.055 16.8702H13.62C13.4857 16.87 13.3548 16.9132 13.2469 16.9932C13.139 17.0733 13.0598 17.1859 13.0209 17.3146C12.9821 17.4432 12.9858 17.5809 13.0313 17.7073C13.0769 17.8337 13.162 17.942 13.274 18.0162L16.834 20.3802L15.468 24.4152C15.4259 24.5402 15.4244 24.6753 15.4637 24.8011C15.503 24.927 15.5812 25.0372 15.6869 25.116C15.7927 25.1948 15.9206 25.2381 16.0525 25.2398C16.1843 25.2414 16.3133 25.2013 16.421 25.1252L20 22.5962L23.578 25.1242C23.6857 25.2003 23.8147 25.2404 23.9466 25.2388C24.0785 25.2371 24.2064 25.1938 24.3122 25.115C24.4179 25.0362 24.496 24.926 24.5353 24.8001C24.5747 24.6743 24.5732 24.5392 24.531 24.4142L23.165 20.3782L26.715 18.0142C26.8266 17.9398 26.9113 17.8315 26.9566 17.7054C27.0018 17.5792 27.0054 17.4418 26.9666 17.3134C26.9278 17.1851 26.8488 17.0726 26.7412 16.9926C26.6336 16.9126 26.5031 16.8694 26.369 16.8692H21.955L20.596 12.6622Z" fill="black" stroke="#191919" stroke-width="1.25"/>
<path d="M20.596 12.6622C20.5555 12.5362 20.4761 12.4264 20.3692 12.3484C20.2622 12.2705 20.1333 12.2285 20.001 12.2285C19.8687 12.2285 19.7398 12.2705 19.6329 12.3484C19.526 12.4264 19.4465 12.5362 19.406 12.6622L18.055 16.8702H13.62C13.4857 16.87 13.3548 16.9132 13.2469 16.9932C13.139 17.0733 13.0598 17.1859 13.0209 17.3146C12.9821 17.4432 12.9858 17.5809 13.0313 17.7073C13.0769 17.8337 13.162 17.942 13.274 18.0162L16.834 20.3802L15.468 24.4152C15.4259 24.5402 15.4244 24.6753 15.4637 24.8011C15.503 24.927 15.5812 25.0372 15.6869 25.116C15.7927 25.1948 15.9206 25.2381 16.0525 25.2398C16.1843 25.2414 16.3133 25.2013 16.421 25.1252L20 22.5962L23.578 25.1242C23.6857 25.2003 23.8147 25.2404 23.9466 25.2388C24.0785 25.2371 24.2064 25.1938 24.3122 25.115C24.4179 25.0362 24.496 24.926 24.5353 24.8001C24.5747 24.6743 24.5732 24.5392 24.531 24.4142L23.165 20.3782L26.715 18.0142C26.8266 17.9398 26.9113 17.8315 26.9566 17.7054C27.0018 17.5792 27.0054 17.4418 26.9666 17.3134C26.9278 17.1851 26.8488 17.0726 26.7412 16.9926C26.6336 16.9126 26.5031 16.8694 26.369 16.8692H21.955L20.596 12.6622Z" stroke="#191919" stroke-width="1.25"/>
</g>
<g clip-path="url(#clip2_2_1847)">
<path d="M32.596 12.6622C32.5555 12.5362 32.4761 12.4264 32.3692 12.3484C32.2622 12.2705 32.1333 12.2285 32.001 12.2285C31.8687 12.2285 31.7398 12.2705 31.6329 12.3484C31.526 12.4264 31.4465 12.5362 31.406 12.6622L30.055 16.8702H25.62C25.4857 16.87 25.3548 16.9132 25.2469 16.9932C25.139 17.0733 25.0598 17.1859 25.0209 17.3146C24.9821 17.4432 24.9858 17.5809 25.0313 17.7073C25.0769 17.8337 25.162 17.942 25.274 18.0162L28.834 20.3802L27.468 24.4152C27.4259 24.5402 27.4244 24.6753 27.4637 24.8011C27.503 24.927 27.5812 25.0372 27.6869 25.116C27.7927 25.1948 27.9206 25.2381 28.0525 25.2398C28.1843 25.2414 28.3133 25.2013 28.421 25.1252L32 22.5962L35.578 25.1242C35.6857 25.2003 35.8147 25.2404 35.9466 25.2388C36.0785 25.2371 36.2064 25.1938 36.3122 25.115C36.4179 25.0362 36.496 24.926 36.5353 24.8001C36.5747 24.6743 36.5732 24.5392 36.531 24.4142L35.165 20.3782L38.715 18.0142C38.8266 17.9398 38.9113 17.8315 38.9566 17.7054C39.0018 17.5792 39.0054 17.4418 38.9666 17.3134C38.9278 17.1851 38.8488 17.0726 38.7412 16.9926C38.6336 16.9126 38.5031 16.8694 38.369 16.8692H33.955L32.596 12.6622Z" fill="black" stroke="#191919" stroke-width="1.25"/>
<path d="M32.596 12.6622C32.5555 12.5362 32.4761 12.4264 32.3692 12.3484C32.2622 12.2705 32.1333 12.2285 32.001 12.2285C31.8687 12.2285 31.7398 12.2705 31.6329 12.3484C31.526 12.4264 31.4465 12.5362 31.406 12.6622L30.055 16.8702H25.62C25.4857 16.87 25.3548 16.9132 25.2469 16.9932C25.139 17.0733 25.0598 17.1859 25.0209 17.3146C24.9821 17.4432 24.9858 17.5809 25.0313 17.7073C25.0769 17.8337 25.162 17.942 25.274 18.0162L28.834 20.3802L27.468 24.4152C27.4259 24.5402 27.4244 24.6753 27.4637 24.8011C27.503 24.927 27.5812 25.0372 27.6869 25.116C27.7927 25.1948 27.9206 25.2381 28.0525 25.2398C28.1843 25.2414 28.3133 25.2013 28.421 25.1252L32 22.5962L35.578 25.1242C35.6857 25.2003 35.8147 25.2404 35.9466 25.2388C36.0785 25.2371 36.2064 25.1938 36.3122 25.115C36.4179 25.0362 36.496 24.926 36.5353 24.8001C36.5747 24.6743 36.5732 24.5392 36.531 24.4142L35.165 20.3782L38.715 18.0142C38.8266 17.9398 38.9113 17.8315 38.9566 17.7054C39.0018 17.5792 39.0054 17.4418 38.9666 17.3134C38.9278 17.1851 38.8488 17.0726 38.7412 16.9926C38.6336 16.9126 38.5031 16.8694 38.369 16.8692H33.955L32.596 12.6622Z" stroke="#191919" stroke-width="1.25"/>
</g>
<g clip-path="url(#clip3_2_1847)">
<path d="M44.596 12.6622C44.5555 12.5362 44.4761 12.4264 44.3692 12.3484C44.2622 12.2705 44.1333 12.2285 44.001 12.2285C43.8687 12.2285 43.7398 12.2705 43.6329 12.3484C43.526 12.4264 43.4465 12.5362 43.406 12.6622L42.055 16.8702H37.62C37.4857 16.87 37.3548 16.9132 37.2469 16.9932C37.139 17.0733 37.0598 17.1859 37.0209 17.3146C36.9821 17.4432 36.9858 17.5809 37.0313 17.7073C37.0769 17.8337 37.162 17.942 37.274 18.0162L40.834 20.3802L39.468 24.4152C39.4259 24.5402 39.4244 24.6753 39.4637 24.8011C39.503 24.927 39.5812 25.0372 39.6869 25.116C39.7927 25.1948 39.9206 25.2381 40.0525 25.2398C40.1843 25.2414 40.3133 25.2013 40.421 25.1252L44 22.5962L47.578 25.1242C47.6857 25.2003 47.8147 25.2404 47.9466 25.2388C48.0785 25.2371 48.2064 25.1938 48.3122 25.115C48.4179 25.0362 48.496 24.926 48.5353 24.8001C48.5747 24.6743 48.5732 24.5392 48.531 24.4142L47.165 20.3782L50.715 18.0142C50.8266 17.9398 50.9113 17.8315 50.9566 17.7054C51.0018 17.5792 51.0054 17.4418 50.9666 17.3134C50.9278 17.1851 50.8488 17.0726 50.7412 16.9926C50.6336 16.9126 50.5031 16.8694 50.369 16.8692H45.955L44.596 12.6622Z" fill="black" stroke="#191919" stroke-width="1.25"/>
<path d="M44.596 12.6622C44.5555 12.5362 44.4761 12.4264 44.3692 12.3484C44.2622 12.2705 44.1333 12.2285 44.001 12.2285C43.8687 12.2285 43.7398 12.2705 43.6329 12.3484C43.526 12.4264 43.4465 12.5362 43.406 12.6622L42.055 16.8702H37.62C37.4857 16.87 37.3548 16.9132 37.2469 16.9932C37.139 17.0733 37.0598 17.1859 37.0209 17.3146C36.9821 17.4432 36.9858 17.5809 37.0313 17.7073C37.0769 17.8337 37.162 17.942 37.274 18.0162L40.834 20.3802L39.468 24.4152C39.4259 24.5402 39.4244 24.6753 39.4637 24.8011C39.503 24.927 39.5812 25.0372 39.6869 25.116C39.7927 25.1948 39.9206 25.2381 40.0525 25.2398C40.1843 25.2414 40.3133 25.2013 40.421 25.1252L44 22.5962L47.578 25.1242C47.6857 25.2003 47.8147 25.2404 47.9466 25.2388C48.0785 25.2371 48.2064 25.1938 48.3122 25.115C48.4179 25.0362 48.496 24.926 48.5353 24.8001C48.5747 24.6743 48.5732 24.5392 48.531 24.4142L47.165 20.3782L50.715 18.0142C50.8266 17.9398 50.9113 17.8315 50.9566 17.7054C51.0018 17.5792 51.0054 17.4418 50.9666 17.3134C50.9278 17.1851 50.8488 17.0726 50.7412 16.9926C50.6336 16.9126 50.5031 16.8694 50.369 16.8692H45.955L44.596 12.6622Z" stroke="#191919" stroke-width="1.25"/>
</g>
<g clip-path="url(#clip4_2_1847)">
<path d="M56.596 12.6622C56.5555 12.5362 56.4761 12.4264 56.3692 12.3484C56.2622 12.2705 56.1333 12.2285 56.001 12.2285C55.8687 12.2285 55.7398 12.2705 55.6329 12.3484C55.526 12.4264 55.4465 12.5362 55.406 12.6622L54.055 16.8702H49.62C49.4857 16.87 49.3548 16.9132 49.2469 16.9932C49.139 17.0733 49.0598 17.1859 49.0209 17.3146C48.9821 17.4432 48.9858 17.5809 49.0313 17.7073C49.0769 17.8337 49.162 17.942 49.274 18.0162L52.834 20.3802L51.468 24.4152C51.4259 24.5402 51.4244 24.6753 51.4637 24.8011C51.503 24.927 51.5812 25.0372 51.6869 25.116C51.7927 25.1948 51.9206 25.2381 52.0525 25.2398C52.1843 25.2414 52.3133 25.2013 52.421 25.1252L56 22.5962L59.578 25.1242C59.6857 25.2003 59.8147 25.2404 59.9466 25.2388C60.0785 25.2371 60.2064 25.1938 60.3122 25.115C60.4179 25.0362 60.496 24.926 60.5353 24.8001C60.5747 24.6743 60.5732 24.5392 60.531 24.4142L59.165 20.3782L62.715 18.0142C62.8266 17.9398 62.9113 17.8315 62.9566 17.7054C63.0018 17.5792 63.0054 17.4418 62.9666 17.3134C62.9278 17.1851 62.8488 17.0726 62.7412 16.9926C62.6336 16.9126 62.5031 16.8694 62.369 16.8692H57.955L56.596 12.6622Z" fill="black" stroke="#191919" stroke-width="1.25"/>
<path d="M56.596 12.6622C56.5555 12.5362 56.4761 12.4264 56.3692 12.3484C56.2622 12.2705 56.1333 12.2285 56.001 12.2285C55.8687 12.2285 55.7398 12.2705 55.6329 12.3484C55.526 12.4264 55.4465 12.5362 55.406 12.6622L54.055 16.8702H49.62C49.4857 16.87 49.3548 16.9132 49.2469 16.9932C49.139 17.0733 49.0598 17.1859 49.0209 17.3146C48.9821 17.4432 48.9858 17.5809 49.0313 17.7073C49.0769 17.8337 49.162 17.942 49.274 18.0162L52.834 20.3802L51.468 24.4152C51.4259 24.5402 51.4244 24.6753 51.4637 24.8011C51.503 24.927 51.5812 25.0372 51.6869 25.116C51.7927 25.1948 51.9206 25.2381 52.0525 25.2398C52.1843 25.2414 52.3133 25.2013 52.421 25.1252L56 22.5962L59.578 25.1242C59.6857 25.2003 59.8147 25.2404 59.9466 25.2388C60.0785 25.2371 60.2064 25.1938 60.3122 25.115C60.4179 25.0362 60.496 24.926 60.5353 24.8001C60.5747 24.6743 60.5732 24.5392 60.531 24.4142L59.165 20.3782L62.715 18.0142C62.8266 17.9398 62.9113 17.8315 62.9566 17.7054C63.0018 17.5792 63.0054 17.4418 62.9666 17.3134C62.9278 17.1851 62.8488 17.0726 62.7412 16.9926C62.6336 16.9126 62.5031 16.8694 62.369 16.8692H57.955L56.596 12.6622Z" stroke="#191919" stroke-width="1.25"/>
</g>
<path d="M70.105 22.394C69.6685 21.8433 69.2993 21.1987 68.9976 20.4604C68.6958 19.7222 68.5449 18.9575 68.5449 18.1665C68.5449 17.4692 68.6577 16.8013 68.8833 16.1626C69.147 15.4214 69.5542 14.6831 70.105 13.9478H70.6719C70.3174 14.5571 70.083 14.9922 69.9688 15.2529C69.79 15.6572 69.6494 16.0791 69.5469 16.5186C69.4209 17.0664 69.3579 17.6172 69.3579 18.1709C69.3579 19.5801 69.7959 20.9878 70.6719 22.394H70.105ZM74.3501 20.5H73.5591V15.4595C73.3687 15.6411 73.1182 15.8228 72.8076 16.0044C72.5 16.186 72.2231 16.3223 71.9771 16.4131V15.6484C72.4194 15.4404 72.8062 15.1885 73.1372 14.8926C73.4683 14.5967 73.7026 14.3096 73.8403 14.0312H74.3501V20.5ZM77.1187 22.394H76.5518C77.4277 20.9878 77.8657 19.5801 77.8657 18.1709C77.8657 17.6201 77.8027 17.0737 77.6768 16.5317C77.5771 16.0923 77.438 15.6704 77.2593 15.2661C77.145 15.0024 76.9092 14.563 76.5518 13.9478H77.1187C77.6694 14.6831 78.0767 15.4214 78.3403 16.1626C78.5659 16.8013 78.6787 17.4692 78.6787 18.1665C78.6787 18.9575 78.5264 19.7222 78.2217 20.4604C77.9199 21.1987 77.5522 21.8433 77.1187 22.394Z" fill="#707070"/>
<defs>
<clipPath id="clip0_2_1847">
<rect width="12" height="12" fill="white" transform="translate(0 10.7344)"/>
</clipPath>
<clipPath id="clip1_2_1847">
<rect width="12" height="12" fill="white" transform="translate(12 10.7344)"/>
</clipPath>
<clipPath id="clip2_2_1847">
<rect width="12" height="12" fill="white" transform="translate(24 10.7344)"/>
</clipPath>
<clipPath id="clip3_2_1847">
<rect width="12" height="12" fill="white" transform="translate(36 10.7344)"/>
</clipPath>
<clipPath id="clip4_2_1847">
<rect width="12" height="12" fill="white" transform="translate(48 10.7344)"/>
</clipPath>
</defs>
</svg>
