<svg width="562" height="48" viewBox="0 0 562 48" fill="none" xmlns="http://www.w3.org/2000/svg">
<path d="M25.923 22.3139C25.8889 21.9702 25.7426 21.7031 25.4841 21.5128C25.2255 21.3224 24.8747 21.2273 24.4315 21.2273C24.1304 21.2273 23.8761 21.2699 23.6687 21.3551C23.4613 21.4375 23.3022 21.5526 23.1914 21.7003C23.0835 21.848 23.0295 22.0156 23.0295 22.2031C23.0238 22.3594 23.0565 22.4957 23.1275 22.6122C23.2014 22.7287 23.3022 22.8295 23.4301 22.9148C23.5579 22.9972 23.7056 23.0696 23.8733 23.1321C24.0409 23.1918 24.2198 23.2429 24.4102 23.2855L25.1943 23.473C25.575 23.5582 25.9244 23.6719 26.2426 23.8139C26.5608 23.956 26.8363 24.1307 27.0693 24.3381C27.3022 24.5455 27.4826 24.7898 27.6105 25.071C27.7412 25.3523 27.8079 25.6747 27.8108 26.0384C27.8079 26.5724 27.6716 27.0355 27.4017 27.4276C27.1346 27.8168 26.7483 28.1193 26.2426 28.3352C25.7397 28.5483 25.1332 28.6548 24.423 28.6548C23.7184 28.6548 23.1048 28.5469 22.5821 28.331C22.0622 28.1151 21.6559 27.7955 21.3633 27.3722C21.0735 26.946 20.9216 26.419 20.9073 25.7912H22.6929C22.7127 26.0838 22.7966 26.3281 22.9443 26.5241C23.0948 26.7173 23.2951 26.8636 23.5451 26.9631C23.798 27.0597 24.0835 27.108 24.4017 27.108C24.7142 27.108 24.9855 27.0625 25.2156 26.9716C25.4485 26.8807 25.6289 26.7543 25.7568 26.5923C25.8846 26.4304 25.9485 26.2443 25.9485 26.0341C25.9485 25.8381 25.8903 25.6733 25.7738 25.5398C25.6602 25.4062 25.4926 25.2926 25.271 25.1989C25.0522 25.1051 24.7838 25.0199 24.4656 24.9432L23.5153 24.7045C22.7795 24.5256 22.1985 24.2457 21.7724 23.8651C21.3463 23.4844 21.1346 22.9716 21.1375 22.3267C21.1346 21.7983 21.2752 21.3366 21.5593 20.9418C21.8463 20.5469 22.2397 20.2386 22.7397 20.017C23.2397 19.7955 23.8079 19.6847 24.4443 19.6847C25.092 19.6847 25.6573 19.7955 26.1403 20.017C26.6261 20.2386 27.0039 20.5469 27.2738 20.9418C27.5437 21.3366 27.6829 21.794 27.6914 22.3139H25.923ZM30.8331 24.7472V28.5312H29.0178V19.804H30.782V23.1406H30.8587C31.0064 22.7543 31.2451 22.4517 31.5746 22.233C31.9042 22.0114 32.3175 21.9006 32.8147 21.9006C33.2692 21.9006 33.6655 22 34.0036 22.1989C34.3445 22.3949 34.6087 22.6776 34.7962 23.0469C34.9865 23.4134 35.0803 23.8523 35.0774 24.3636V28.5312H33.2621V24.6875C33.2649 24.2841 33.1627 23.9702 32.9553 23.7457C32.7507 23.5213 32.4638 23.4091 32.0945 23.4091C31.8473 23.4091 31.6286 23.4616 31.4382 23.5668C31.2507 23.6719 31.103 23.8253 30.9951 24.027C30.8899 24.2259 30.836 24.4659 30.8331 24.7472ZM36.5061 28.5312V21.9858H38.3214V28.5312H36.5061ZM37.418 21.142C37.1481 21.142 36.9166 21.0526 36.7234 20.8736C36.5331 20.6918 36.4379 20.4744 36.4379 20.2216C36.4379 19.9716 36.5331 19.7571 36.7234 19.5781C36.9166 19.3963 37.1481 19.3054 37.418 19.3054C37.6879 19.3054 37.918 19.3963 38.1083 19.5781C38.3015 19.7571 38.3981 19.9716 38.3981 20.2216C38.3981 20.4744 38.3015 20.6918 38.1083 20.8736C37.918 21.0526 37.6879 21.142 37.418 21.142ZM39.7756 30.9858V21.9858H41.5654V23.0852H41.6463C41.7259 22.9091 41.8409 22.7301 41.9915 22.5483C42.1449 22.3636 42.3438 22.2102 42.5881 22.0881C42.8353 21.9631 43.1421 21.9006 43.5086 21.9006C43.9858 21.9006 44.4262 22.0256 44.8296 22.2756C45.233 22.5227 45.5554 22.8963 45.7969 23.3963C46.0384 23.8935 46.1591 24.517 46.1591 25.267C46.1591 25.9972 46.0412 26.6136 45.8054 27.1165C45.5725 27.6165 45.2543 27.9957 44.8509 28.2543C44.4503 28.5099 44.0015 28.6378 43.5043 28.6378C43.152 28.6378 42.8523 28.5795 42.6051 28.4631C42.3608 28.3466 42.1605 28.2003 42.0043 28.0241C41.848 27.8452 41.7287 27.6648 41.6463 27.483H41.5909V30.9858H39.7756ZM41.5526 25.2585C41.5526 25.6477 41.6066 25.9872 41.7145 26.277C41.8225 26.5668 41.9787 26.7926 42.1833 26.9545C42.3878 27.1136 42.6364 27.1932 42.929 27.1932C43.2245 27.1932 43.4745 27.1122 43.679 26.9503C43.8836 26.7855 44.0384 26.5582 44.1435 26.2685C44.2515 25.9759 44.3054 25.6392 44.3054 25.2585C44.3054 24.8807 44.2529 24.5483 44.1478 24.2614C44.0426 23.9744 43.8878 23.75 43.6833 23.5881C43.4787 23.4261 43.2273 23.3452 42.929 23.3452C42.6336 23.3452 42.3836 23.4233 42.179 23.5795C41.9773 23.7358 41.8225 23.9574 41.7145 24.2443C41.6066 24.5312 41.5526 24.8693 41.5526 25.2585ZM52.8154 23.8523L51.1534 23.9545C51.125 23.8125 51.064 23.6847 50.9702 23.571C50.8765 23.4545 50.7529 23.3622 50.5995 23.294C50.4489 23.223 50.2685 23.1875 50.0583 23.1875C49.777 23.1875 49.5398 23.2472 49.3466 23.3665C49.1534 23.483 49.0569 23.6392 49.0569 23.8352C49.0569 23.9915 49.1194 24.1236 49.2444 24.2315C49.3694 24.3395 49.5838 24.4261 49.8878 24.4915L51.0725 24.7301C51.7088 24.8608 52.1833 25.071 52.4958 25.3608C52.8083 25.6506 52.9645 26.0312 52.9645 26.5028C52.9645 26.9318 52.8381 27.3082 52.5853 27.6321C52.3353 27.956 51.9915 28.2088 51.554 28.3906C51.1194 28.5696 50.6179 28.6591 50.0498 28.6591C49.1833 28.6591 48.4929 28.4787 47.9787 28.1179C47.4674 27.7543 47.1676 27.2599 47.0796 26.6349L48.8651 26.5412C48.9191 26.8054 49.0498 27.0071 49.2571 27.1463C49.4645 27.2827 49.7301 27.3509 50.054 27.3509C50.3722 27.3509 50.6279 27.2898 50.8211 27.1676C51.0171 27.0426 51.1165 26.8821 51.1194 26.6861C51.1165 26.5213 51.0469 26.3864 50.9105 26.2812C50.7742 26.1733 50.564 26.0909 50.2799 26.0341L49.1463 25.8082C48.5071 25.6804 48.0313 25.4588 47.7188 25.1435C47.4091 24.8281 47.2543 24.4261 47.2543 23.9375C47.2543 23.517 47.3679 23.1548 47.5952 22.8509C47.8253 22.5469 48.1478 22.3125 48.5625 22.1477C48.9801 21.983 49.4688 21.9006 50.0284 21.9006C50.8551 21.9006 51.5057 22.0753 51.9801 22.4247C52.4574 22.7741 52.7358 23.25 52.8154 23.8523ZM60.4049 21.9858V23.3494H56.3651V21.9858H60.4049ZM57.2898 28.5312V21.5128C57.2898 21.0384 57.3821 20.6449 57.5668 20.3324C57.7543 20.0199 58.01 19.7855 58.3338 19.6293C58.6577 19.473 59.0256 19.3949 59.4375 19.3949C59.7159 19.3949 59.9702 19.4162 60.2003 19.4588C60.4333 19.5014 60.6066 19.5398 60.7202 19.5739L60.3963 20.9375C60.3253 20.9148 60.2372 20.8935 60.1321 20.8736C60.0299 20.8537 59.9247 20.8438 59.8168 20.8438C59.5497 20.8438 59.3637 20.9062 59.2586 21.0312C59.1534 21.1534 59.1009 21.3253 59.1009 21.5469V28.5312H57.2898ZM61.5139 28.5312V21.9858H63.2738V23.1278H63.342C63.4613 22.7216 63.6616 22.4148 63.9429 22.2074C64.2241 21.9972 64.548 21.892 64.9145 21.892C65.0054 21.892 65.1034 21.8977 65.2085 21.9091C65.3136 21.9205 65.4059 21.9361 65.4855 21.956V23.5668C65.4002 23.5412 65.2823 23.5185 65.1318 23.4986C64.9812 23.4787 64.8434 23.4688 64.7184 23.4688C64.4514 23.4688 64.2127 23.527 64.0025 23.6435C63.7951 23.7571 63.6304 23.9162 63.5082 24.1207C63.3889 24.3253 63.3292 24.5611 63.3292 24.8281V28.5312H61.5139ZM69.0767 28.6591C68.4148 28.6591 67.8424 28.5185 67.3594 28.2372C66.8793 27.9531 66.5086 27.5582 66.2472 27.0526C65.9858 26.544 65.8551 25.9545 65.8551 25.2841C65.8551 24.608 65.9858 24.017 66.2472 23.5114C66.5086 23.0028 66.8793 22.608 67.3594 22.3267C67.8424 22.0426 68.4148 21.9006 69.0767 21.9006C69.7387 21.9006 70.3097 22.0426 70.7898 22.3267C71.2728 22.608 71.6449 23.0028 71.9063 23.5114C72.1676 24.017 72.2983 24.608 72.2983 25.2841C72.2983 25.9545 72.1676 26.544 71.9063 27.0526C71.6449 27.5582 71.2728 27.9531 70.7898 28.2372C70.3097 28.5185 69.7387 28.6591 69.0767 28.6591ZM69.0853 27.2528C69.3864 27.2528 69.6378 27.1676 69.8395 26.9972C70.0412 26.8239 70.1932 26.5881 70.2955 26.2898C70.4006 25.9915 70.4532 25.652 70.4532 25.2713C70.4532 24.8906 70.4006 24.5511 70.2955 24.2528C70.1932 23.9545 70.0412 23.7187 69.8395 23.5455C69.6378 23.3722 69.3864 23.2855 69.0853 23.2855C68.7813 23.2855 68.5256 23.3722 68.3182 23.5455C68.1137 23.7187 67.9588 23.9545 67.8537 24.2528C67.7515 24.5511 67.7003 24.8906 67.7003 25.2713C67.7003 25.652 67.7515 25.9915 67.8537 26.2898C67.9588 26.5881 68.1137 26.8239 68.3182 26.9972C68.5256 27.1676 68.7813 27.2528 69.0853 27.2528ZM73.4787 28.5312V21.9858H75.2088V23.1406H75.2855C75.4219 22.7571 75.6492 22.4545 75.9674 22.233C76.2855 22.0114 76.6662 21.9006 77.1094 21.9006C77.5583 21.9006 77.9404 22.0128 78.2557 22.2372C78.5711 22.4588 78.7813 22.7599 78.8864 23.1406H78.9546C79.0881 22.7656 79.3296 22.4659 79.679 22.2415C80.0313 22.0142 80.4475 21.9006 80.9276 21.9006C81.5384 21.9006 82.0341 22.0952 82.4148 22.4844C82.7983 22.8707 82.9901 23.419 82.9901 24.1293V28.5312H81.179V24.4872C81.179 24.1236 81.0824 23.8509 80.8892 23.669C80.6961 23.4872 80.4546 23.3963 80.1648 23.3963C79.8353 23.3963 79.5782 23.5014 79.3935 23.7116C79.2088 23.919 79.1165 24.1932 79.1165 24.5341V28.5312H77.3566V24.4489C77.3566 24.1278 77.2642 23.8722 77.0796 23.6818C76.8978 23.4915 76.6577 23.3963 76.3594 23.3963C76.1577 23.3963 75.9759 23.4474 75.814 23.5497C75.6549 23.6491 75.5284 23.7898 75.4347 23.9716C75.3409 24.1506 75.2941 24.3608 75.2941 24.6023V28.5312H73.4787ZM92.6261 19.804H94.4713V25.4716C94.4713 26.108 94.3193 26.6648 94.0153 27.142C93.7142 27.6193 93.2923 27.9915 92.7497 28.2585C92.2071 28.5227 91.575 28.6548 90.8534 28.6548C90.1289 28.6548 89.4954 28.5227 88.9528 28.2585C88.4102 27.9915 87.9883 27.6193 87.6872 27.142C87.386 26.6648 87.2355 26.108 87.2355 25.4716V19.804H89.0806V25.3139C89.0806 25.6463 89.1531 25.9418 89.298 26.2003C89.4457 26.4588 89.6531 26.6619 89.9201 26.8097C90.1872 26.9574 90.4983 27.0312 90.8534 27.0312C91.2113 27.0312 91.5224 26.9574 91.7866 26.8097C92.0537 26.6619 92.2596 26.4588 92.4045 26.2003C92.5522 25.9418 92.6261 25.6463 92.6261 25.3139V19.804ZM97.7706 24.7472V28.5312H95.9553V21.9858H97.6854V23.1406H97.7621C97.907 22.7599 98.1499 22.4588 98.4908 22.2372C98.8317 22.0128 99.2451 21.9006 99.7309 21.9006C100.185 21.9006 100.582 22 100.92 22.1989C101.258 22.3977 101.521 22.6818 101.708 23.0511C101.896 23.4176 101.989 23.8551 101.989 24.3636V28.5312H100.174V24.6875C100.177 24.2869 100.075 23.9744 99.8672 23.75C99.6598 23.5227 99.3743 23.4091 99.0107 23.4091C98.7664 23.4091 98.5505 23.4616 98.363 23.5668C98.1783 23.6719 98.0334 23.8253 97.9283 24.027C97.826 24.2259 97.7735 24.4659 97.7706 24.7472ZM103.42 28.5312V21.9858H105.235V28.5312H103.42ZM104.332 21.142C104.062 21.142 103.831 21.0526 103.637 20.8736C103.447 20.6918 103.352 20.4744 103.352 20.2216C103.352 19.9716 103.447 19.7571 103.637 19.5781C103.831 19.3963 104.062 19.3054 104.332 19.3054C104.602 19.3054 104.832 19.3963 105.022 19.5781C105.216 19.7571 105.312 19.9716 105.312 20.2216C105.312 20.4744 105.216 20.6918 105.022 20.8736C104.832 21.0526 104.602 21.142 104.332 21.142ZM110.171 21.9858V23.3494H106.229V21.9858H110.171ZM107.124 20.4176H108.94V26.5199C108.94 26.6875 108.965 26.8182 109.016 26.9119C109.068 27.0028 109.139 27.0668 109.229 27.1037C109.323 27.1406 109.431 27.1591 109.553 27.1591C109.639 27.1591 109.724 27.152 109.809 27.1378C109.894 27.1207 109.96 27.108 110.005 27.0994L110.291 28.4503C110.2 28.4787 110.072 28.5114 109.907 28.5483C109.742 28.5881 109.542 28.6122 109.306 28.6207C108.869 28.6378 108.485 28.5795 108.156 28.446C107.829 28.3125 107.575 28.1051 107.393 27.8239C107.211 27.5426 107.121 27.1875 107.124 26.7585V20.4176ZM114.266 28.6591C113.593 28.6591 113.014 28.5227 112.528 28.25C112.045 27.9744 111.673 27.5852 111.411 27.0824C111.15 26.5767 111.019 25.9787 111.019 25.2884C111.019 24.6151 111.15 24.0241 111.411 23.5156C111.673 23.0071 112.041 22.6108 112.515 22.3267C112.992 22.0426 113.552 21.9006 114.194 21.9006C114.626 21.9006 115.028 21.9702 115.4 22.1094C115.775 22.2457 116.102 22.4517 116.38 22.7273C116.661 23.0028 116.88 23.3494 117.036 23.767C117.193 24.1818 117.271 24.6676 117.271 25.2244V25.723H111.744V24.598H115.562C115.562 24.3366 115.505 24.1051 115.391 23.9034C115.278 23.7017 115.12 23.544 114.918 23.4304C114.719 23.3139 114.488 23.2557 114.224 23.2557C113.948 23.2557 113.704 23.3196 113.491 23.4474C113.281 23.5724 113.116 23.7415 112.996 23.9545C112.877 24.1648 112.816 24.3991 112.813 24.6577V25.7273C112.813 26.0511 112.873 26.331 112.992 26.5668C113.114 26.8026 113.286 26.9844 113.508 27.1122C113.729 27.2401 113.992 27.304 114.296 27.304C114.498 27.304 114.683 27.2756 114.85 27.2188C115.018 27.1619 115.161 27.0767 115.281 26.9631C115.4 26.8494 115.491 26.7102 115.553 26.5455L117.232 26.6562C117.147 27.0597 116.972 27.4119 116.708 27.7131C116.447 28.0114 116.109 28.2443 115.694 28.4119C115.282 28.5767 114.806 28.6591 114.266 28.6591ZM120.867 28.6378C120.37 28.6378 119.92 28.5099 119.516 28.2543C119.116 27.9957 118.798 27.6165 118.562 27.1165C118.329 26.6136 118.212 25.9972 118.212 25.267C118.212 24.517 118.333 23.8935 118.575 23.3963C118.816 22.8963 119.137 22.5227 119.538 22.2756C119.941 22.0256 120.383 21.9006 120.863 21.9006C121.229 21.9006 121.535 21.9631 121.779 22.0881C122.026 22.2102 122.225 22.3636 122.376 22.5483C122.529 22.7301 122.646 22.9091 122.725 23.0852H122.781V19.804H124.592V28.5312H122.802V27.483H122.725C122.64 27.6648 122.519 27.8452 122.363 28.0241C122.21 28.2003 122.009 28.3466 121.762 28.4631C121.518 28.5795 121.219 28.6378 120.867 28.6378ZM121.443 27.1932C121.735 27.1932 121.982 27.1136 122.184 26.9545C122.389 26.7926 122.545 26.5668 122.653 26.277C122.764 25.9872 122.819 25.6477 122.819 25.2585C122.819 24.8693 122.765 24.5312 122.657 24.2443C122.549 23.9574 122.393 23.7358 122.188 23.5795C121.984 23.4233 121.735 23.3452 121.443 23.3452C121.144 23.3452 120.893 23.4261 120.688 23.5881C120.484 23.75 120.329 23.9744 120.224 24.2614C120.119 24.5483 120.066 24.8807 120.066 25.2585C120.066 25.6392 120.119 25.9759 120.224 26.2685C120.332 26.5582 120.487 26.7855 120.688 26.9503C120.893 27.1122 121.144 27.1932 121.443 27.1932ZM133.63 22.3139C133.596 21.9702 133.45 21.7031 133.191 21.5128C132.933 21.3224 132.582 21.2273 132.139 21.2273C131.837 21.2273 131.583 21.2699 131.376 21.3551C131.168 21.4375 131.009 21.5526 130.898 21.7003C130.791 21.848 130.737 22.0156 130.737 22.2031C130.731 22.3594 130.764 22.4957 130.835 22.6122C130.908 22.7287 131.009 22.8295 131.137 22.9148C131.265 22.9972 131.413 23.0696 131.58 23.1321C131.748 23.1918 131.927 23.2429 132.117 23.2855L132.901 23.473C133.282 23.5582 133.631 23.6719 133.95 23.8139C134.268 23.956 134.543 24.1307 134.776 24.3381C135.009 24.5455 135.19 24.7898 135.318 25.071C135.448 25.3523 135.515 25.6747 135.518 26.0384C135.515 26.5724 135.379 27.0355 135.109 27.4276C134.842 27.8168 134.455 28.1193 133.95 28.3352C133.447 28.5483 132.84 28.6548 132.13 28.6548C131.425 28.6548 130.812 28.5469 130.289 28.331C129.769 28.1151 129.363 27.7955 129.07 27.3722C128.781 26.946 128.629 26.419 128.614 25.7912H130.4C130.42 26.0838 130.504 26.3281 130.651 26.5241C130.802 26.7173 131.002 26.8636 131.252 26.9631C131.505 27.0597 131.791 27.108 132.109 27.108C132.421 27.108 132.693 27.0625 132.923 26.9716C133.156 26.8807 133.336 26.7543 133.464 26.5923C133.592 26.4304 133.656 26.2443 133.656 26.0341C133.656 25.8381 133.597 25.6733 133.481 25.5398C133.367 25.4062 133.2 25.2926 132.978 25.1989C132.759 25.1051 132.491 25.0199 132.173 24.9432L131.222 24.7045C130.487 24.5256 129.906 24.2457 129.479 23.8651C129.053 23.4844 128.842 22.9716 128.844 22.3267C128.842 21.7983 128.982 21.3366 129.266 20.9418C129.553 20.5469 129.947 20.2386 130.447 20.017C130.947 19.7955 131.515 19.6847 132.151 19.6847C132.799 19.6847 133.364 19.7955 133.847 20.017C134.333 20.2386 134.711 20.5469 134.981 20.9418C135.251 21.3366 135.39 21.794 135.398 22.3139H133.63ZM140.206 21.9858V23.3494H136.265V21.9858H140.206ZM137.159 20.4176H138.975V26.5199C138.975 26.6875 139 26.8182 139.052 26.9119C139.103 27.0028 139.174 27.0668 139.265 27.1037C139.358 27.1406 139.466 27.1591 139.588 27.1591C139.674 27.1591 139.759 27.152 139.844 27.1378C139.929 27.1207 139.995 27.108 140.04 27.0994L140.326 28.4503C140.235 28.4787 140.107 28.5114 139.942 28.5483C139.777 28.5881 139.577 28.6122 139.341 28.6207C138.904 28.6378 138.52 28.5795 138.191 28.446C137.864 28.3125 137.61 28.1051 137.428 27.8239C137.246 27.5426 137.157 27.1875 137.159 26.7585V20.4176ZM143.255 28.6548C142.838 28.6548 142.466 28.5824 142.139 28.4375C141.812 28.2898 141.554 28.0724 141.363 27.7855C141.176 27.4957 141.082 27.1349 141.082 26.7031C141.082 26.3395 141.149 26.0341 141.282 25.7869C141.416 25.5398 141.598 25.3409 141.828 25.1903C142.058 25.0398 142.319 24.9261 142.612 24.8494C142.907 24.7727 143.217 24.7188 143.541 24.6875C143.922 24.6477 144.228 24.6108 144.461 24.5767C144.694 24.5398 144.863 24.4858 144.968 24.4148C145.074 24.3437 145.126 24.2386 145.126 24.0994V24.0739C145.126 23.804 145.041 23.5952 144.87 23.4474C144.703 23.2997 144.464 23.2259 144.155 23.2259C143.828 23.2259 143.568 23.2983 143.375 23.4432C143.181 23.5852 143.054 23.7642 142.991 23.9801L141.312 23.8438C141.397 23.446 141.565 23.1023 141.815 22.8125C142.065 22.5199 142.387 22.2955 142.782 22.1392C143.18 21.9801 143.64 21.9006 144.163 21.9006C144.527 21.9006 144.875 21.9432 145.207 22.0284C145.542 22.1136 145.839 22.2457 146.098 22.4247C146.359 22.6037 146.565 22.8338 146.716 23.1151C146.866 23.3935 146.941 23.7273 146.941 24.1165V28.5312H145.22V27.6236H145.169C145.064 27.8281 144.923 28.0085 144.747 28.1648C144.571 28.3182 144.359 28.4389 144.112 28.527C143.865 28.6122 143.579 28.6548 143.255 28.6548ZM143.775 27.402C144.042 27.402 144.278 27.3494 144.483 27.2443C144.687 27.1364 144.848 26.9915 144.964 26.8097C145.081 26.6278 145.139 26.4219 145.139 26.1918V25.4972C145.082 25.5341 145.004 25.5682 144.905 25.5994C144.808 25.6278 144.699 25.6548 144.576 25.6804C144.454 25.7031 144.332 25.7244 144.21 25.7443C144.088 25.7614 143.977 25.777 143.878 25.7912C143.664 25.8224 143.478 25.8722 143.319 25.9403C143.16 26.0085 143.037 26.1009 142.949 26.2173C142.86 26.331 142.816 26.473 142.816 26.6435C142.816 26.8906 142.906 27.0795 143.085 27.2102C143.267 27.3381 143.497 27.402 143.775 27.402ZM151.831 21.9858V23.3494H147.89V21.9858H151.831ZM148.784 20.4176H150.6V26.5199C150.6 26.6875 150.625 26.8182 150.677 26.9119C150.728 27.0028 150.799 27.0668 150.89 27.1037C150.983 27.1406 151.091 27.1591 151.213 27.1591C151.299 27.1591 151.384 27.152 151.469 27.1378C151.554 27.1207 151.62 27.108 151.665 27.0994L151.951 28.4503C151.86 28.4787 151.732 28.5114 151.567 28.5483C151.402 28.5881 151.202 28.6122 150.966 28.6207C150.529 28.6378 150.145 28.5795 149.816 28.446C149.489 28.3125 149.235 28.1051 149.053 27.8239C148.871 27.5426 148.782 27.1875 148.784 26.7585V20.4176ZM155.927 28.6591C155.253 28.6591 154.674 28.5227 154.188 28.25C153.705 27.9744 153.333 27.5852 153.071 27.0824C152.81 26.5767 152.679 25.9787 152.679 25.2884C152.679 24.6151 152.81 24.0241 153.071 23.5156C153.333 23.0071 153.701 22.6108 154.175 22.3267C154.652 22.0426 155.212 21.9006 155.854 21.9006C156.286 21.9006 156.688 21.9702 157.06 22.1094C157.435 22.2457 157.762 22.4517 158.04 22.7273C158.321 23.0028 158.54 23.3494 158.696 23.767C158.853 24.1818 158.931 24.6676 158.931 25.2244V25.723H153.404V24.598H157.222C157.222 24.3366 157.165 24.1051 157.052 23.9034C156.938 23.7017 156.78 23.544 156.579 23.4304C156.38 23.3139 156.148 23.2557 155.884 23.2557C155.608 23.2557 155.364 23.3196 155.151 23.4474C154.941 23.5724 154.776 23.7415 154.657 23.9545C154.537 24.1648 154.476 24.3991 154.473 24.6577V25.7273C154.473 26.0511 154.533 26.331 154.652 26.5668C154.775 26.8026 154.946 26.9844 155.168 27.1122C155.39 27.2401 155.652 27.304 155.956 27.304C156.158 27.304 156.343 27.2756 156.51 27.2188C156.678 27.1619 156.821 27.0767 156.941 26.9631C157.06 26.8494 157.151 26.7102 157.213 26.5455L158.892 26.6562C158.807 27.0597 158.632 27.4119 158.368 27.7131C158.107 28.0114 157.769 28.2443 157.354 28.4119C156.942 28.5767 156.466 28.6591 155.927 28.6591ZM165.561 23.8523L163.9 23.9545C163.871 23.8125 163.81 23.6847 163.716 23.571C163.623 23.4545 163.499 23.3622 163.346 23.294C163.195 23.223 163.015 23.1875 162.804 23.1875C162.523 23.1875 162.286 23.2472 162.093 23.3665C161.9 23.483 161.803 23.6392 161.803 23.8352C161.803 23.9915 161.865 24.1236 161.99 24.2315C162.115 24.3395 162.33 24.4261 162.634 24.4915L163.819 24.7301C164.455 24.8608 164.929 25.071 165.242 25.3608C165.554 25.6506 165.711 26.0312 165.711 26.5028C165.711 26.9318 165.584 27.3082 165.331 27.6321C165.081 27.956 164.738 28.2088 164.3 28.3906C163.865 28.5696 163.364 28.6591 162.796 28.6591C161.929 28.6591 161.239 28.4787 160.725 28.1179C160.213 27.7543 159.914 27.2599 159.826 26.6349L161.611 26.5412C161.665 26.8054 161.796 27.0071 162.003 27.1463C162.211 27.2827 162.476 27.3509 162.8 27.3509C163.118 27.3509 163.374 27.2898 163.567 27.1676C163.763 27.0426 163.863 26.8821 163.865 26.6861C163.863 26.5213 163.793 26.3864 163.657 26.2812C163.52 26.1733 163.31 26.0909 163.026 26.0341L161.892 25.8082C161.253 25.6804 160.777 25.4588 160.465 25.1435C160.155 24.8281 160 24.4261 160 23.9375C160 23.517 160.114 23.1548 160.341 22.8509C160.571 22.5469 160.894 22.3125 161.309 22.1477C161.726 21.983 162.215 21.9006 162.775 21.9006C163.601 21.9006 164.252 22.0753 164.726 22.4247C165.204 22.7741 165.482 23.25 165.561 23.8523Z" fill="#DD1E31"/>
<path d="M261.42 29.6605C260.786 29.6605 260.226 29.5482 259.739 29.3235C259.256 29.0958 258.879 28.7834 258.608 28.3864C258.337 27.9863 258.204 27.5308 258.207 27.0199C258.204 26.6198 258.282 26.2505 258.442 25.9119C258.602 25.5703 258.821 25.2856 259.098 25.0579C259.378 24.8271 259.69 24.6809 260.035 24.6193V24.5639C259.582 24.447 259.222 24.1931 258.955 23.8022C258.687 23.4083 258.554 22.9605 258.557 22.4588C258.554 21.9787 258.676 21.5494 258.922 21.1708C259.168 20.7923 259.507 20.4937 259.938 20.2752C260.372 20.0567 260.866 19.9474 261.42 19.9474C261.968 19.9474 262.457 20.0567 262.888 20.2752C263.319 20.4937 263.657 20.7923 263.903 21.1708C264.153 21.5494 264.279 21.9787 264.282 22.4588C264.279 22.9605 264.142 23.4083 263.871 23.8022C263.603 24.1931 263.248 24.447 262.805 24.5639V24.6193C263.146 24.6809 263.454 24.8271 263.728 25.0579C264.002 25.2856 264.22 25.5703 264.383 25.9119C264.547 26.2505 264.63 26.6198 264.633 27.0199C264.63 27.5308 264.491 27.9863 264.217 28.3864C263.946 28.7834 263.569 29.0958 263.086 29.3235C262.606 29.5482 262.051 29.6605 261.42 29.6605ZM261.42 28.6449C261.847 28.6449 262.217 28.5756 262.528 28.4371C262.838 28.2987 263.079 28.1032 263.248 27.8509C263.417 27.5985 263.503 27.303 263.506 26.9645C263.503 26.6075 263.411 26.292 263.229 26.0181C263.048 25.7442 262.8 25.5288 262.486 25.3718C262.175 25.2148 261.82 25.1364 261.42 25.1364C261.017 25.1364 260.656 25.2148 260.339 25.3718C260.026 25.5288 259.778 25.7442 259.596 26.0181C259.418 26.292 259.33 26.6075 259.333 26.9645C259.33 27.303 259.412 27.5985 259.578 27.8509C259.747 28.1032 259.989 28.2987 260.303 28.4371C260.616 28.5756 260.989 28.6449 261.42 28.6449ZM261.42 24.1577C261.758 24.1577 262.058 24.09 262.32 23.9545C262.585 23.8191 262.792 23.6299 262.943 23.3867C263.094 23.1436 263.171 22.8589 263.174 22.5327C263.171 22.2126 263.095 21.9341 262.948 21.6971C262.8 21.457 262.595 21.2724 262.334 21.1431C262.072 21.0108 261.767 20.9446 261.42 20.9446C261.066 20.9446 260.756 21.0108 260.492 21.1431C260.227 21.2724 260.022 21.457 259.878 21.6971C259.733 21.9341 259.662 22.2126 259.665 22.5327C259.662 22.8589 259.735 23.1436 259.882 23.3867C260.033 23.6299 260.241 23.8191 260.506 23.9545C260.77 24.09 261.075 24.1577 261.42 24.1577ZM269.541 29.6605C269.153 29.6544 268.766 29.5805 268.378 29.4389C267.99 29.2973 267.636 29.0588 267.316 28.7234C266.996 28.3848 266.739 27.9278 266.545 27.3523C266.351 26.7737 266.254 26.0473 266.254 25.1733C266.254 24.3362 266.333 23.5945 266.49 22.9482C266.647 22.2988 266.874 21.7525 267.173 21.3093C267.472 20.863 267.832 20.5245 268.253 20.2937C268.678 20.0629 269.157 19.9474 269.689 19.9474C270.218 19.9474 270.689 20.0536 271.102 20.266C271.517 20.4753 271.856 20.7676 272.117 21.1431C272.379 21.5186 272.548 21.951 272.625 22.4403H271.499C271.394 22.0156 271.191 21.6632 270.889 21.3832C270.588 21.1031 270.188 20.9631 269.689 20.9631C268.956 20.9631 268.379 21.2816 267.958 21.9187C267.539 22.5558 267.328 23.4498 267.325 24.6009H267.399C267.572 24.3393 267.776 24.1161 268.013 23.9315C268.253 23.7437 268.518 23.5991 268.807 23.4975C269.097 23.396 269.403 23.3452 269.726 23.3452C270.268 23.3452 270.763 23.4806 271.212 23.7514C271.662 24.0192 272.022 24.39 272.293 24.864C272.563 25.3349 272.699 25.875 272.699 26.4844C272.699 27.0691 272.568 27.6046 272.307 28.0909C272.045 28.5741 271.677 28.9588 271.203 29.245C270.732 29.5282 270.178 29.6667 269.541 29.6605ZM269.541 28.6449C269.929 28.6449 270.277 28.5479 270.585 28.354C270.895 28.1602 271.14 27.9001 271.319 27.5739C271.5 27.2476 271.591 26.8845 271.591 26.4844C271.591 26.0935 271.503 25.738 271.328 25.418C271.155 25.0948 270.917 24.8378 270.612 24.647C270.311 24.4562 269.966 24.3608 269.578 24.3608C269.286 24.3608 269.013 24.4193 268.761 24.5362C268.509 24.6501 268.287 24.8071 268.096 25.0071C267.909 25.2071 267.761 25.4364 267.653 25.695C267.545 25.9504 267.492 26.2197 267.492 26.5028C267.492 26.8783 267.579 27.2292 267.755 27.5554C267.933 27.8816 268.176 28.1448 268.484 28.3448C268.795 28.5449 269.147 28.6449 269.541 28.6449ZM283.212 24.0284L282.233 24.3054C282.172 24.1423 282.081 23.9838 281.961 23.8299C281.844 23.6729 281.684 23.5437 281.481 23.4421C281.277 23.3406 281.017 23.2898 280.7 23.2898C280.266 23.2898 279.905 23.3898 279.616 23.5898C279.329 23.7868 279.186 24.0376 279.186 24.3423C279.186 24.6132 279.285 24.8271 279.482 24.984C279.679 25.141 279.986 25.2718 280.405 25.3764L281.458 25.6349C282.092 25.7888 282.564 26.0243 282.875 26.3413C283.186 26.6552 283.341 27.0599 283.341 27.5554C283.341 27.9616 283.224 28.3248 282.99 28.6449C282.759 28.965 282.436 29.2173 282.021 29.402C281.605 29.5866 281.122 29.679 280.571 29.679C279.848 29.679 279.249 29.522 278.775 29.2081C278.301 28.8942 278.001 28.4356 277.875 27.8324L278.909 27.5739C279.008 27.9555 279.194 28.2417 279.468 28.4325C279.745 28.6233 280.106 28.7188 280.553 28.7188C281.061 28.7188 281.464 28.611 281.762 28.3956C282.064 28.1771 282.215 27.9155 282.215 27.6108C282.215 27.3646 282.128 27.1584 281.956 26.9922C281.784 26.8229 281.519 26.6967 281.162 26.6136L279.98 26.3366C279.331 26.1828 278.854 25.9442 278.549 25.6211C278.248 25.2949 278.097 24.8871 278.097 24.3977C278.097 23.9976 278.209 23.6437 278.434 23.3359C278.661 23.0282 278.971 22.7866 279.362 22.6112C279.756 22.4357 280.202 22.348 280.7 22.348C281.402 22.348 281.953 22.5019 282.353 22.8097C282.756 23.1174 283.043 23.5237 283.212 24.0284ZM287.862 29.679C287.222 29.679 286.66 29.5266 286.177 29.2219C285.697 28.9173 285.321 28.491 285.05 27.9432C284.783 27.3954 284.649 26.7552 284.649 26.0227C284.649 25.2841 284.783 24.6393 285.05 24.0884C285.321 23.5375 285.697 23.1097 286.177 22.805C286.66 22.5004 287.222 22.348 287.862 22.348C288.502 22.348 289.062 22.5004 289.542 22.805C290.025 23.1097 290.401 23.5375 290.669 24.0884C290.939 24.6393 291.075 25.2841 291.075 26.0227C291.075 26.7552 290.939 27.3954 290.669 27.9432C290.401 28.491 290.025 28.9173 289.542 29.2219C289.062 29.5266 288.502 29.679 287.862 29.679ZM287.862 28.7003C288.348 28.7003 288.748 28.5756 289.062 28.3263C289.376 28.0771 289.608 27.7493 289.759 27.343C289.91 26.9368 289.985 26.4967 289.985 26.0227C289.985 25.5488 289.91 25.1071 289.759 24.6978C289.608 24.2885 289.376 23.9576 289.062 23.7053C288.748 23.4529 288.348 23.3267 287.862 23.3267C287.375 23.3267 286.975 23.4529 286.661 23.7053C286.348 23.9576 286.115 24.2885 285.964 24.6978C285.814 25.1071 285.738 25.5488 285.738 26.0227C285.738 26.4967 285.814 26.9368 285.964 27.343C286.115 27.7493 286.348 28.0771 286.661 28.3263C286.975 28.5756 287.375 28.7003 287.862 28.7003ZM293.827 20.0767V29.5312H292.738V20.0767H293.827ZM298.5 29.679C297.909 29.679 297.388 29.5297 296.935 29.2312C296.483 28.9296 296.129 28.5049 295.874 27.957C295.618 27.4061 295.49 26.7552 295.49 26.0043C295.49 25.2595 295.618 24.6132 295.874 24.0653C296.129 23.5175 296.485 23.0943 296.94 22.7958C297.396 22.4973 297.922 22.348 298.519 22.348C298.981 22.348 299.345 22.425 299.613 22.5788C299.884 22.7296 300.09 22.902 300.232 23.0959C300.376 23.2867 300.489 23.4437 300.569 23.5668H300.661V20.0767H301.75V29.5312H300.698V28.4418H300.569C300.489 28.571 300.375 28.7341 300.227 28.9311C300.079 29.125 299.868 29.2989 299.595 29.4528C299.321 29.6036 298.956 29.679 298.5 29.679ZM298.648 28.7003C299.085 28.7003 299.454 28.5864 299.756 28.3587C300.058 28.1278 300.287 27.8093 300.444 27.4031C300.601 26.9937 300.679 26.5213 300.679 25.9858C300.679 25.4564 300.602 24.9933 300.449 24.5962C300.295 24.1961 300.067 23.8853 299.765 23.6637C299.464 23.439 299.091 23.3267 298.648 23.3267C298.186 23.3267 297.802 23.4452 297.494 23.6822C297.189 23.9161 296.96 24.2346 296.806 24.6378C296.655 25.0379 296.58 25.4872 296.58 25.9858C296.58 26.4905 296.657 26.9491 296.811 27.3615C296.968 27.7708 297.199 28.0971 297.503 28.3402C297.811 28.5803 298.193 28.7003 298.648 28.7003Z" fill="#333333"/>
<path d="M187.359 46.5312V1.53125H185.359V46.5312H187.359Z" fill="#E5E5E5" mask="url(#path-4-inside-2_2_3004)"/>
<path d="M390.634 29.5312V20.0767H396.303V21.0923H391.779V24.2869H395.878V25.3026H391.779V29.5312H390.634ZM398.04 29.5312V22.4403H399.093V23.5114H399.167C399.296 23.1605 399.53 22.8758 399.868 22.6573C400.207 22.4388 400.588 22.3295 401.013 22.3295C401.093 22.3295 401.193 22.3311 401.313 22.3342C401.433 22.3372 401.524 22.3419 401.586 22.348V23.456C401.549 23.4467 401.464 23.4329 401.332 23.4144C401.202 23.3929 401.065 23.3821 400.921 23.3821C400.576 23.3821 400.268 23.4544 399.998 23.5991C399.73 23.7406 399.517 23.9376 399.36 24.19C399.207 24.4393 399.13 24.724 399.13 25.044V29.5312H398.04ZM405.634 29.679C404.951 29.679 404.362 29.5282 403.866 29.2266C403.374 28.9219 402.994 28.4972 402.726 27.9524C402.461 27.4046 402.329 26.7675 402.329 26.0412C402.329 25.3149 402.461 24.6747 402.726 24.1207C402.994 23.5637 403.366 23.1297 403.843 22.8189C404.323 22.505 404.883 22.348 405.523 22.348C405.893 22.348 406.257 22.4096 406.618 22.5327C406.978 22.6558 407.305 22.8558 407.601 23.1328C407.896 23.4067 408.132 23.7699 408.307 24.2223C408.483 24.6747 408.57 25.2318 408.57 25.8935V26.3551H403.104V25.4134H407.462C407.462 25.0133 407.382 24.6562 407.222 24.3423C407.065 24.0284 406.841 23.7807 406.548 23.5991C406.259 23.4175 405.917 23.3267 405.523 23.3267C405.089 23.3267 404.714 23.4344 404.397 23.6499C404.083 23.8622 403.842 24.1392 403.672 24.4808C403.503 24.8224 403.418 25.1887 403.418 25.5795V26.2074C403.418 26.7429 403.511 27.1969 403.695 27.5692C403.883 27.9386 404.143 28.2202 404.475 28.4141C404.808 28.6049 405.194 28.7003 405.634 28.7003C405.92 28.7003 406.179 28.6603 406.41 28.5803C406.644 28.4972 406.845 28.3741 407.015 28.2109C407.184 28.0447 407.315 27.8385 407.407 27.5923L408.46 27.8878C408.349 28.2448 408.163 28.5587 407.901 28.8295C407.639 29.0973 407.316 29.3066 406.931 29.4574C406.547 29.6051 406.114 29.679 405.634 29.679ZM413.201 29.679C412.517 29.679 411.928 29.5282 411.433 29.2266C410.94 28.9219 410.56 28.4972 410.292 27.9524C410.028 27.4046 409.895 26.7675 409.895 26.0412C409.895 25.3149 410.028 24.6747 410.292 24.1207C410.56 23.5637 410.932 23.1297 411.409 22.8189C411.89 22.505 412.45 22.348 413.09 22.348C413.459 22.348 413.824 22.4096 414.184 22.5327C414.544 22.6558 414.872 22.8558 415.167 23.1328C415.463 23.4067 415.698 23.7699 415.874 24.2223C416.049 24.6747 416.137 25.2318 416.137 25.8935V26.3551H410.671V25.4134H415.029C415.029 25.0133 414.949 24.6562 414.789 24.3423C414.632 24.0284 414.407 23.7807 414.115 23.5991C413.825 23.4175 413.484 23.3267 413.09 23.3267C412.656 23.3267 412.28 23.4344 411.963 23.6499C411.65 23.8622 411.408 24.1392 411.239 24.4808C411.069 24.8224 410.985 25.1887 410.985 25.5795V26.2074C410.985 26.7429 411.077 27.1969 411.262 27.5692C411.449 27.9386 411.71 28.2202 412.042 28.4141C412.374 28.6049 412.761 28.7003 413.201 28.7003C413.487 28.7003 413.745 28.6603 413.976 28.5803C414.21 28.4972 414.412 28.3741 414.581 28.2109C414.75 28.0447 414.881 27.8385 414.973 27.5923L416.026 27.8878C415.915 28.2448 415.729 28.5587 415.467 28.8295C415.206 29.0973 414.883 29.3066 414.498 29.4574C414.113 29.6051 413.681 29.679 413.201 29.679ZM426.473 24.0284L425.494 24.3054C425.433 24.1423 425.342 23.9838 425.222 23.8299C425.105 23.6729 424.945 23.5437 424.742 23.4421C424.539 23.3406 424.279 23.2898 423.962 23.2898C423.528 23.2898 423.166 23.3898 422.877 23.5898C422.591 23.7868 422.447 24.0376 422.447 24.3423C422.447 24.6132 422.546 24.8271 422.743 24.984C422.94 25.141 423.248 25.2718 423.666 25.3764L424.719 25.6349C425.353 25.7888 425.825 26.0243 426.136 26.3413C426.447 26.6552 426.602 27.0599 426.602 27.5554C426.602 27.9616 426.485 28.3248 426.251 28.6449C426.021 28.965 425.697 29.2173 425.282 29.402C424.866 29.5866 424.383 29.679 423.832 29.679C423.109 29.679 422.511 29.522 422.037 29.2081C421.563 28.8942 421.263 28.4356 421.136 27.8324L422.17 27.5739C422.269 27.9555 422.455 28.2417 422.729 28.4325C423.006 28.6233 423.368 28.7188 423.814 28.7188C424.322 28.7188 424.725 28.611 425.023 28.3956C425.325 28.1771 425.476 27.9155 425.476 27.6108C425.476 27.3646 425.39 27.1584 425.217 26.9922C425.045 26.8229 424.78 26.6967 424.423 26.6136L423.241 26.3366C422.592 26.1828 422.115 25.9442 421.81 25.6211C421.509 25.2949 421.358 24.8871 421.358 24.3977C421.358 23.9976 421.47 23.6437 421.695 23.3359C421.923 23.0282 422.232 22.7866 422.623 22.6112C423.017 22.4357 423.463 22.348 423.962 22.348C424.663 22.348 425.214 22.5019 425.614 22.8097C426.018 23.1174 426.304 23.5237 426.473 24.0284ZM429.332 25.2656V29.5312H428.242V20.0767H429.332V23.5483H429.424C429.59 23.1821 429.84 22.8912 430.172 22.6758C430.507 22.4573 430.954 22.348 431.511 22.348C431.994 22.348 432.417 22.445 432.78 22.6388C433.143 22.8297 433.425 23.1236 433.625 23.5206C433.828 23.9145 433.93 24.4162 433.93 25.0256V29.5312H432.84V25.0994C432.84 24.5362 432.694 24.1007 432.402 23.793C432.112 23.4821 431.711 23.3267 431.197 23.3267C430.84 23.3267 430.52 23.4021 430.237 23.5529C429.957 23.7037 429.735 23.9238 429.572 24.2131C429.412 24.5024 429.332 24.8532 429.332 25.2656ZM435.923 29.5312V22.4403H437.012V29.5312H435.923ZM436.477 21.2585C436.265 21.2585 436.081 21.1862 435.928 21.0415C435.777 20.8969 435.701 20.723 435.701 20.5199C435.701 20.3168 435.777 20.1429 435.928 19.9982C436.081 19.8536 436.265 19.7812 436.477 19.7812C436.689 19.7812 436.871 19.8536 437.022 19.9982C437.176 20.1429 437.252 20.3168 437.252 20.5199C437.252 20.723 437.176 20.8969 437.022 21.0415C436.871 21.1862 436.689 21.2585 436.477 21.2585ZM439.008 32.1903V22.4403H440.06V23.5668H440.19C440.27 23.4437 440.381 23.2867 440.522 23.0959C440.667 22.902 440.873 22.7296 441.141 22.5788C441.412 22.425 441.778 22.348 442.239 22.348C442.836 22.348 443.363 22.4973 443.818 22.7958C444.274 23.0943 444.629 23.5175 444.885 24.0653C445.14 24.6132 445.268 25.2595 445.268 26.0043C445.268 26.7552 445.14 27.4061 444.885 27.957C444.629 28.5049 444.275 28.9296 443.823 29.2312C443.37 29.5297 442.849 29.679 442.258 29.679C441.802 29.679 441.438 29.6036 441.164 29.4528C440.89 29.2989 440.679 29.125 440.531 28.9311C440.384 28.7341 440.27 28.571 440.19 28.4418H440.097V32.1903H439.008ZM440.079 25.9858C440.079 26.5213 440.157 26.9937 440.314 27.4031C440.471 27.8093 440.701 28.1278 441.002 28.3587C441.304 28.5864 441.673 28.7003 442.11 28.7003C442.566 28.7003 442.946 28.5803 443.25 28.3402C443.558 28.0971 443.789 27.7708 443.943 27.3615C444.1 26.9491 444.178 26.4905 444.178 25.9858C444.178 25.4872 444.101 25.0379 443.948 24.6378C443.797 24.2346 443.567 23.9161 443.26 23.6822C442.955 23.4452 442.572 23.3267 442.11 23.3267C441.667 23.3267 441.295 23.439 440.993 23.6637C440.691 23.8853 440.464 24.1961 440.31 24.5962C440.156 24.9933 440.079 25.4564 440.079 25.9858ZM446.93 32.1903V22.4403H447.982V23.5668H448.112C448.192 23.4437 448.302 23.2867 448.444 23.0959C448.589 22.902 448.795 22.7296 449.063 22.5788C449.333 22.425 449.7 22.348 450.161 22.348C450.758 22.348 451.285 22.4973 451.74 22.7958C452.196 23.0943 452.551 23.5175 452.807 24.0653C453.062 24.6132 453.19 25.2595 453.19 26.0043C453.19 26.7552 453.062 27.4061 452.807 27.957C452.551 28.5049 452.197 28.9296 451.745 29.2312C451.292 29.5297 450.771 29.679 450.18 29.679C449.724 29.679 449.36 29.6036 449.086 29.4528C448.812 29.2989 448.601 29.125 448.453 28.9311C448.305 28.7341 448.192 28.571 448.112 28.4418H448.019V32.1903H446.93ZM448.001 25.9858C448.001 26.5213 448.079 26.9937 448.236 27.4031C448.393 27.8093 448.622 28.1278 448.924 28.3587C449.226 28.5864 449.595 28.7003 450.032 28.7003C450.488 28.7003 450.868 28.5803 451.172 28.3402C451.48 28.0971 451.711 27.7708 451.865 27.3615C452.022 26.9491 452.1 26.4905 452.1 25.9858C452.1 25.4872 452.023 25.0379 451.869 24.6378C451.719 24.2346 451.489 23.9161 451.182 23.6822C450.877 23.4452 450.494 23.3267 450.032 23.3267C449.589 23.3267 449.216 23.439 448.915 23.6637C448.613 23.8853 448.386 24.1961 448.232 24.5962C448.078 24.9933 448.001 25.4564 448.001 25.9858ZM454.852 29.5312V22.4403H455.941V29.5312H454.852ZM455.406 21.2585C455.193 21.2585 455.01 21.1862 454.856 21.0415C454.705 20.8969 454.63 20.723 454.63 20.5199C454.63 20.3168 454.705 20.1429 454.856 19.9982C455.01 19.8536 455.193 19.7812 455.406 19.7812C455.618 19.7812 455.8 19.8536 455.95 19.9982C456.104 20.1429 456.181 20.3168 456.181 20.5199C456.181 20.723 456.104 20.8969 455.95 21.0415C455.8 21.1862 455.618 21.2585 455.406 21.2585ZM459.026 25.2656V29.5312H457.937V22.4403H458.989V23.5483H459.081C459.248 23.1882 459.5 22.8989 459.839 22.6804C460.177 22.4588 460.614 22.348 461.15 22.348C461.63 22.348 462.05 22.4465 462.41 22.6435C462.77 22.8374 463.05 23.1328 463.25 23.5298C463.45 23.9238 463.55 24.4223 463.55 25.0256V29.5312H462.461V25.0994C462.461 24.5424 462.316 24.1084 462.027 23.7976C461.738 23.4837 461.34 23.3267 460.836 23.3267C460.488 23.3267 460.177 23.4021 459.903 23.5529C459.632 23.7037 459.419 23.9238 459.262 24.2131C459.105 24.5024 459.026 24.8532 459.026 25.2656ZM468.403 32.3381C467.877 32.3381 467.425 32.2704 467.046 32.1349C466.668 32.0026 466.352 31.8272 466.1 31.6087C465.85 31.3932 465.652 31.1624 465.504 30.9162L466.372 30.3068C466.471 30.4361 466.595 30.5838 466.746 30.75C466.897 30.9193 467.103 31.0655 467.365 31.1886C467.629 31.3147 467.976 31.3778 468.403 31.3778C468.976 31.3778 469.448 31.2393 469.821 30.9624C470.193 30.6854 470.379 30.2514 470.379 29.6605V28.2202H470.287C470.207 28.3494 470.093 28.5095 469.945 28.7003C469.801 28.888 469.591 29.0558 469.317 29.2035C469.047 29.3481 468.68 29.4205 468.219 29.4205C467.646 29.4205 467.132 29.285 466.677 29.0142C466.224 28.7434 465.866 28.3494 465.601 27.8324C465.34 27.3153 465.209 26.6875 465.209 25.9489C465.209 25.2225 465.336 24.5901 465.592 24.0515C465.847 23.5098 466.203 23.0913 466.658 22.7958C467.114 22.4973 467.64 22.348 468.237 22.348C468.699 22.348 469.065 22.425 469.336 22.5788C469.61 22.7296 469.819 22.902 469.964 23.0959C470.111 23.2867 470.225 23.4437 470.305 23.5668H470.416V22.4403H471.469V29.7344C471.469 30.3438 471.33 30.8393 471.053 31.2209C470.779 31.6056 470.41 31.8872 469.945 32.0657C469.484 32.2473 468.97 32.3381 468.403 32.3381ZM468.366 28.4418C468.803 28.4418 469.173 28.3417 469.474 28.1417C469.776 27.9416 470.005 27.6539 470.162 27.2784C470.319 26.9029 470.398 26.4536 470.398 25.9304C470.398 25.4195 470.321 24.9686 470.167 24.5778C470.013 24.1869 469.785 23.8807 469.484 23.6591C469.182 23.4375 468.81 23.3267 468.366 23.3267C467.905 23.3267 467.52 23.4437 467.212 23.6776C466.908 23.9115 466.678 24.2254 466.524 24.6193C466.374 25.0133 466.298 25.4503 466.298 25.9304C466.298 26.4228 466.375 26.8583 466.529 27.2369C466.686 27.6123 466.917 27.9078 467.222 28.1232C467.529 28.3356 467.911 28.4418 468.366 28.4418ZM479.206 29.6974C478.757 29.6974 478.349 29.6128 477.983 29.4435C477.616 29.2712 477.325 29.0234 477.11 28.7003C476.895 28.3741 476.787 27.9801 476.787 27.5185C476.787 27.1122 476.867 26.7829 477.027 26.5305C477.187 26.2751 477.401 26.075 477.669 25.9304C477.936 25.7857 478.232 25.678 478.555 25.6072C478.881 25.5334 479.209 25.4749 479.538 25.4318C479.969 25.3764 480.318 25.3349 480.586 25.3072C480.857 25.2764 481.054 25.2256 481.177 25.1548C481.303 25.084 481.366 24.9609 481.366 24.7855V24.7486C481.366 24.2931 481.242 23.9392 480.992 23.6868C480.746 23.4344 480.372 23.3082 479.871 23.3082C479.351 23.3082 478.943 23.4221 478.647 23.6499C478.352 23.8776 478.144 24.1207 478.024 24.3793L476.99 24.0099C477.175 23.5791 477.421 23.2436 477.729 23.0036C478.039 22.7604 478.378 22.5911 478.744 22.4957C479.114 22.3973 479.477 22.348 479.834 22.348C480.061 22.348 480.323 22.3757 480.619 22.4311C480.917 22.4834 481.205 22.5927 481.482 22.7589C481.762 22.9251 481.994 23.1759 482.179 23.5114C482.364 23.8468 482.456 24.2962 482.456 24.8594V29.5312H481.366V28.571H481.311C481.237 28.7249 481.114 28.8896 480.942 29.065C480.769 29.2404 480.54 29.3897 480.254 29.5128C479.968 29.6359 479.618 29.6974 479.206 29.6974ZM479.372 28.7188C479.803 28.7188 480.166 28.6341 480.462 28.4648C480.76 28.2956 480.985 28.0771 481.136 27.8093C481.289 27.5415 481.366 27.2599 481.366 26.9645V25.9673C481.32 26.0227 481.219 26.0735 481.062 26.1197C480.908 26.1628 480.729 26.2012 480.526 26.2351C480.326 26.2659 480.131 26.2936 479.94 26.3182C479.752 26.3397 479.6 26.3582 479.483 26.3736C479.2 26.4105 478.935 26.4705 478.689 26.5536C478.446 26.6336 478.249 26.7552 478.098 26.9183C477.95 27.0784 477.876 27.2969 477.876 27.5739C477.876 27.9524 478.016 28.2386 478.296 28.4325C478.58 28.6233 478.938 28.7188 479.372 28.7188ZM485.534 25.2656V29.5312H484.444V22.4403H485.497V23.5483H485.589C485.756 23.1882 486.008 22.8989 486.346 22.6804C486.685 22.4588 487.122 22.348 487.657 22.348C488.138 22.348 488.558 22.4465 488.918 22.6435C489.278 22.8374 489.558 23.1328 489.758 23.5298C489.958 23.9238 490.058 24.4223 490.058 25.0256V29.5312H488.969V25.0994C488.969 24.5424 488.824 24.1084 488.535 23.7976C488.245 23.4837 487.848 23.3267 487.344 23.3267C486.996 23.3267 486.685 23.4021 486.411 23.5529C486.14 23.7037 485.926 23.9238 485.769 24.2131C485.612 24.5024 485.534 24.8532 485.534 25.2656ZM494.726 29.679C494.136 29.679 493.614 29.5297 493.161 29.2312C492.709 28.9296 492.355 28.5049 492.1 27.957C491.844 27.4061 491.717 26.7552 491.717 26.0043C491.717 25.2595 491.844 24.6132 492.1 24.0653C492.355 23.5175 492.711 23.0943 493.166 22.7958C493.622 22.4973 494.148 22.348 494.745 22.348C495.207 22.348 495.571 22.425 495.839 22.5788C496.11 22.7296 496.316 22.902 496.458 23.0959C496.602 23.2867 496.715 23.4437 496.795 23.5668H496.887V20.0767H497.976V29.5312H496.924V28.4418H496.795C496.715 28.571 496.601 28.7341 496.453 28.9311C496.305 29.125 496.094 29.2989 495.821 29.4528C495.547 29.6036 495.182 29.679 494.726 29.679ZM494.874 28.7003C495.311 28.7003 495.681 28.5864 495.982 28.3587C496.284 28.1278 496.513 27.8093 496.67 27.4031C496.827 26.9937 496.905 26.5213 496.905 25.9858C496.905 25.4564 496.829 24.9933 496.675 24.5962C496.521 24.1961 496.293 23.8853 495.991 23.6637C495.69 23.439 495.317 23.3267 494.874 23.3267C494.413 23.3267 494.028 23.4452 493.72 23.6822C493.415 23.9161 493.186 24.2346 493.032 24.6378C492.881 25.0379 492.806 25.4872 492.806 25.9858C492.806 26.4905 492.883 26.9491 493.037 27.3615C493.194 27.7708 493.425 28.0971 493.729 28.3402C494.037 28.5803 494.419 28.7003 494.874 28.7003ZM503.779 29.5312V22.4403H504.832V23.5114H504.906C505.035 23.1605 505.269 22.8758 505.608 22.6573C505.946 22.4388 506.328 22.3295 506.752 22.3295C506.832 22.3295 506.932 22.3311 507.052 22.3342C507.172 22.3372 507.263 22.3419 507.325 22.348V23.456C507.288 23.4467 507.203 23.4329 507.071 23.4144C506.942 23.3929 506.805 23.3821 506.66 23.3821C506.315 23.3821 506.008 23.4544 505.737 23.5991C505.469 23.7406 505.257 23.9376 505.1 24.19C504.946 24.4393 504.869 24.724 504.869 25.044V29.5312H503.779ZM511.373 29.679C510.69 29.679 510.101 29.5282 509.605 29.2266C509.113 28.9219 508.733 28.4972 508.465 27.9524C508.2 27.4046 508.068 26.7675 508.068 26.0412C508.068 25.3149 508.2 24.6747 508.465 24.1207C508.733 23.5637 509.105 23.1297 509.582 22.8189C510.062 22.505 510.623 22.348 511.263 22.348C511.632 22.348 511.997 22.4096 512.357 22.5327C512.717 22.6558 513.045 22.8558 513.34 23.1328C513.636 23.4067 513.871 23.7699 514.046 24.2223C514.222 24.6747 514.31 25.2318 514.31 25.8935V26.3551H508.844V25.4134H513.202C513.202 25.0133 513.122 24.6562 512.962 24.3423C512.805 24.0284 512.58 23.7807 512.288 23.5991C511.998 23.4175 511.657 23.3267 511.263 23.3267C510.829 23.3267 510.453 23.4344 510.136 23.6499C509.822 23.8622 509.581 24.1392 509.411 24.4808C509.242 24.8224 509.158 25.1887 509.158 25.5795V26.2074C509.158 26.7429 509.25 27.1969 509.435 27.5692C509.622 27.9386 509.882 28.2202 510.215 28.4141C510.547 28.6049 510.933 28.7003 511.373 28.7003C511.66 28.7003 511.918 28.6603 512.149 28.5803C512.383 28.4972 512.585 28.3741 512.754 28.2109C512.923 28.0447 513.054 27.8385 513.146 27.5923L514.199 27.8878C514.088 28.2448 513.902 28.5587 513.64 28.8295C513.379 29.0973 513.055 29.3066 512.671 29.4574C512.286 29.6051 511.854 29.679 511.373 29.679ZM519.051 22.4403V23.3636H515.376V22.4403H519.051ZM516.447 20.7415H517.536V27.5C517.536 27.8078 517.581 28.0386 517.67 28.1925C517.763 28.3433 517.88 28.4448 518.021 28.4972C518.166 28.5464 518.318 28.571 518.478 28.571C518.598 28.571 518.697 28.5649 518.774 28.5526C518.851 28.5372 518.912 28.5249 518.958 28.5156L519.18 29.4943C519.106 29.522 519.003 29.5497 518.871 29.5774C518.738 29.6082 518.571 29.6236 518.367 29.6236C518.06 29.6236 517.758 29.5574 517.463 29.4251C517.17 29.2927 516.927 29.0911 516.733 28.8203C516.542 28.5495 516.447 28.2079 516.447 27.7955V20.7415ZM525.158 26.6321V22.4403H526.248V29.5312H525.158V28.331H525.084C524.918 28.6911 524.66 28.9973 524.309 29.2496C523.958 29.4989 523.515 29.6236 522.979 29.6236C522.536 29.6236 522.142 29.5266 521.797 29.3327C521.453 29.1358 521.182 28.8403 520.985 28.4464C520.788 28.0494 520.69 27.5492 520.69 26.946V22.4403H521.779V26.8722C521.779 27.3892 521.924 27.8016 522.213 28.1094C522.505 28.4171 522.878 28.571 523.33 28.571C523.601 28.571 523.876 28.5018 524.157 28.3633C524.44 28.2248 524.677 28.0124 524.867 27.7262C525.061 27.44 525.158 27.0753 525.158 26.6321ZM528.243 29.5312V22.4403H529.296V23.5114H529.37C529.499 23.1605 529.733 22.8758 530.071 22.6573C530.41 22.4388 530.792 22.3295 531.216 22.3295C531.296 22.3295 531.396 22.3311 531.516 22.3342C531.636 22.3372 531.727 22.3419 531.789 22.348V23.456C531.752 23.4467 531.667 23.4329 531.535 23.4144C531.406 23.3929 531.269 23.3821 531.124 23.3821C530.779 23.3821 530.471 23.4544 530.201 23.5991C529.933 23.7406 529.721 23.9376 529.564 24.19C529.41 24.4393 529.333 24.724 529.333 25.044V29.5312H528.243ZM534.17 25.2656V29.5312H533.08V22.4403H534.133V23.5483H534.225C534.391 23.1882 534.644 22.8989 534.982 22.6804C535.321 22.4588 535.758 22.348 536.293 22.348C536.773 22.348 537.193 22.4465 537.554 22.6435C537.914 22.8374 538.194 23.1328 538.394 23.5298C538.594 23.9238 538.694 24.4223 538.694 25.0256V29.5312H537.604V25.0994C537.604 24.5424 537.46 24.1084 537.17 23.7976C536.881 23.4837 536.484 23.3267 535.979 23.3267C535.632 23.3267 535.321 23.4021 535.047 23.5529C534.776 23.7037 534.562 23.9238 534.405 24.2131C534.248 24.5024 534.17 24.8532 534.17 25.2656ZM545.707 24.0284L544.729 24.3054C544.667 24.1423 544.576 23.9838 544.456 23.8299C544.339 23.6729 544.179 23.5437 543.976 23.4421C543.773 23.3406 543.513 23.2898 543.196 23.2898C542.762 23.2898 542.4 23.3898 542.111 23.5898C541.825 23.7868 541.682 24.0376 541.682 24.3423C541.682 24.6132 541.78 24.8271 541.977 24.984C542.174 25.141 542.482 25.2718 542.901 25.3764L543.953 25.6349C544.587 25.7888 545.06 26.0243 545.37 26.3413C545.681 26.6552 545.837 27.0599 545.837 27.5554C545.837 27.9616 545.72 28.3248 545.486 28.6449C545.255 28.965 544.932 29.2173 544.516 29.402C544.101 29.5866 543.618 29.679 543.067 29.679C542.344 29.679 541.745 29.522 541.271 29.2081C540.797 28.8942 540.497 28.4356 540.371 27.8324L541.405 27.5739C541.503 27.9555 541.69 28.2417 541.963 28.4325C542.24 28.6233 542.602 28.7188 543.048 28.7188C543.556 28.7188 543.959 28.611 544.258 28.3956C544.559 28.1771 544.71 27.9155 544.71 27.6108C544.71 27.3646 544.624 27.1584 544.452 26.9922C544.279 26.8229 544.015 26.6967 543.658 26.6136L542.476 26.3366C541.826 26.1828 541.349 25.9442 541.045 25.6211C540.743 25.2949 540.592 24.8871 540.592 24.3977C540.592 23.9976 540.705 23.6437 540.929 23.3359C541.157 23.0282 541.466 22.7866 541.857 22.6112C542.251 22.4357 542.697 22.348 543.196 22.348C543.898 22.348 544.449 22.5019 544.849 22.8097C545.252 23.1174 545.538 23.5237 545.707 24.0284Z" fill="#333333"/>
<path d="M374.719 46.5312V1.53125H372.719V46.5312H374.719Z" fill="#E5E5E5" mask="url(#path-7-inside-3_2_3004)"/>
<path d="M0 1.53125H561.078V-0.46875H0V1.53125ZM561.078 46.5312H0V48.5312H561.078V46.5312Z" fill="#E5E5E5" mask="url(#path-1-inside-1_2_3004)"/>
</svg>
